<?xml version="1.0" encoding="UTF-8"?><svg id="a" xmlns="http://www.w3.org/2000/svg" xmlns:xlink="http://www.w3.org/1999/xlink" viewBox="0 0 1468.89 1696.13"><defs><clipPath id="c"><polygon id="d" points="945.33 121.76 1101.66 212.02 1468.89 424.03 1468.89 848.06 1468.89 1272.1 1101.66 1484.11 734.44 1696.13 367.22 1484.11 0 1272.1 0 848.06 0 424.03 367.22 212.02 523.55 121.76 523.55 365.28 210.89 545.79 210.89 1150.34 734.44 1452.61 1257.99 1150.34 1257.99 545.79 945.33 365.28 945.33 121.76" clip-rule="evenodd"/></clipPath><clipPath id="f"><rect id="g" x="629" width="210.89" height="365.28"/></clipPath><clipPath id="i"><rect id="j" x="629" y="545.79" width="210.89" height="604.55"/></clipPath></defs><polygon id="b" points="945.33 121.76 1101.66 212.02 1468.89 424.03 1468.89 848.06 1468.89 1272.1 1101.66 1484.11 734.44 1696.13 367.22 1484.11 0 1272.1 0 848.06 0 424.03 367.22 212.02 523.55 121.76 523.55 365.28 210.89 545.79 210.89 1150.34 734.44 1452.61 1257.99 1150.34 1257.99 545.79 945.33 365.28 945.33 121.76" fill-rule="evenodd"/><g clip-path="url(#c)"><rect y="121.76" width="1468.89" height="1574.37"/></g><rect id="e" x="629" width="210.89" height="365.28"/><g clip-path="url(#f)"><rect x="629" width="210.89" height="365.28"/></g><rect id="h" x="629" y="545.79" width="210.89" height="604.55"/><g clip-path="url(#i)"><rect x="629" y="545.79" width="210.89" height="604.55"/></g></svg>